<?xml version="1.0" encoding="UTF-8" standalone="no"?>
<!-- Created with Inkscape (http://www.inkscape.org/) -->

<svg
   width="125.92046mm"
   height="36.906559mm"
   viewBox="0 0 125.92046 36.906559"
   version="1.1"
   id="svg150"
   sodipodi:docname="tps-logo.svg"
   inkscape:version="1.1 (c4e8f9e, 2021-05-24)"
   xmlns:inkscape="http://www.inkscape.org/namespaces/inkscape"
   xmlns:sodipodi="http://sodipodi.sourceforge.net/DTD/sodipodi-0.dtd"
   xmlns="http://www.w3.org/2000/svg"
   xmlns:svg="http://www.w3.org/2000/svg">
  <sodipodi:namedview
     id="namedview152"
     pagecolor="#ffffff"
     bordercolor="#666666"
     borderopacity="1.0"
     inkscape:pageshadow="2"
     inkscape:pageopacity="0.0"
     inkscape:pagecheckerboard="0"
     inkscape:document-units="mm"
     showgrid="false"
     inkscape:zoom="1.0074671"
     inkscape:cx="351.37625"
     inkscape:cy="69.977474"
     inkscape:window-width="1366"
     inkscape:window-height="740"
     inkscape:window-x="0"
     inkscape:window-y="0"
     inkscape:window-maximized="1"
     inkscape:current-layer="layer1" />
  <defs
     id="defs147" />
  <g
     inkscape:label="Layer 1"
     inkscape:groupmode="layer"
     id="layer1"
     transform="translate(-157.20586,-147.44094)">
    <path
       style="fill:#000000;stroke-width:0.0661457"
       d="m 187.08515,184.25872 c 0,-0.0488 0.1265,-0.1263 0.28112,-0.17219 0.15461,-0.0459 0.31832,-0.11379 0.3638,-0.15086 0.0641,-0.0522 0.0827,-0.786 0.0827,-3.26007 0,-3.5542 0.0193,-3.40342 -0.45052,-3.5191 -0.2676,-0.0659 -0.30005,-0.15708 -0.0787,-0.22104 0.99673,-0.28795 1.20933,-0.33481 1.26526,-0.27888 0.0343,0.0344 0.0788,0.17896 0.0988,0.32134 0.0628,0.44748 0.0724,0.45443 0.324,0.23353 0.43625,-0.38304 0.60124,-0.43768 1.32161,-0.43768 0.58941,0 0.70224,0.02 1.03588,0.18388 0.44903,0.22051 0.80251,0.59414 1.03877,1.09803 0.15364,0.32767 0.17431,0.45408 0.17431,1.06627 0,0.61219 -0.0207,0.7386 -0.17431,1.06627 -0.24078,0.51352 -0.59373,0.88088 -1.07306,1.11685 -0.77103,0.37957 -1.73347,0.31939 -2.25807,-0.14121 l -0.2318,-0.20353 v 1.42426 c 0,1.59064 -0.005,1.57226 0.466,1.6991 0.15324,0.0413 0.2616,0.11049 0.2616,0.16711 0,0.0813 -0.1944,0.0967 -1.2237,0.0967 -0.97947,0 -1.22369,-0.0177 -1.22369,-0.0887 z m 3.42517,-3.12283 c 0.64384,-0.26895 1.00406,-0.97128 1.00581,-1.96108 0.001,-0.85106 -0.20602,-1.45978 -0.62229,-1.82526 -0.40708,-0.35742 -1.16194,-0.37973 -1.59788,-0.0472 -0.44155,0.33679 -0.52422,0.63477 -0.52321,1.88578 0.001,1.23709 0.0551,1.44686 0.45082,1.74871 0.40263,0.3071 0.85909,0.37772 1.28675,0.19908 z m 35.68502,2.98843 c -0.64121,-0.16313 -1.18938,-0.48734 -1.71826,-1.01621 -0.88776,-0.88776 -1.11683,-1.67157 -1.05866,-3.62236 0.0358,-1.20115 0.14098,-1.86786 0.51304,-3.25265 1.01919,-3.79329 3.87908,-9.87991 6.26633,-13.33645 0.60378,-0.87422 0.60034,-1.22435 -0.0154,-1.57187 -0.41814,-0.23598 -0.58506,-0.40758 -0.55389,-0.56941 0.0425,-0.22065 0.35853,-0.29931 1.35186,-0.3365 0.81764,-0.0306 0.9517,-0.0507 0.9517,-0.14254 0,-0.0588 0.10664,-0.26529 0.23699,-0.45885 0.13035,-0.19355 0.22709,-0.36104 0.21497,-0.3722 -0.0121,-0.0111 -0.39409,0.12673 -0.84884,0.30641 -3.42382,1.35277 -7.40597,2.34928 -10.78177,2.69807 -1.22478,0.12655 -3.3531,0.21848 -4.27323,0.18459 l -0.93286,-0.0344 -0.65142,1.1007 c -0.98435,1.66324 -3.37674,5.86975 -3.76149,6.61377 -0.0716,0.1385 0.15794,-0.0538 0.66757,-0.55917 2.22819,-2.20967 4.43279,-3.91134 5.6589,-4.36796 0.87173,-0.32465 1.12053,-0.34964 1.33597,-0.13421 0.0938,0.0939 0.17062,0.21905 0.17062,0.27823 0,0.0592 -0.17573,0.35075 -0.39052,0.64793 -0.94035,1.30104 -2.08245,3.43723 -2.28957,4.28239 -0.15538,0.63407 -0.0996,0.89965 0.21653,1.03176 0.21572,0.0901 0.28358,0.0899 0.65778,-0.002 0.46217,-0.11405 1.10278,-0.41749 1.76699,-0.83698 0.41772,-0.26381 0.4522,-0.30621 0.79751,-0.98058 0.41353,-0.8076 1.02281,-1.74089 1.74792,-2.67745 0.27665,-0.35732 0.54042,-0.70192 0.58615,-0.76577 0.0731,-0.10208 0.044,-0.14142 -0.24104,-0.32615 -0.35638,-0.23092 -0.43641,-0.35694 -0.34049,-0.53615 0.076,-0.14204 0.38727,-0.201 1.0663,-0.20198 0.46933,-7.5e-4 0.52065,-0.0153 0.79375,-0.22643 0.5481,-0.42367 0.92295,-0.43514 1.60688,-0.0491 0.34305,0.1936 0.34582,0.19396 1.82944,0.23945 0.81722,0.025 1.54352,0.0619 1.61398,0.0819 0.12498,0.0355 0.12508,0.0386 0.004,0.12722 -0.0683,0.05 -0.24804,0.0908 -0.39937,0.0908 -0.28161,0 -0.69034,0.11102 -0.69354,0.18838 -0.001,0.0237 -0.009,0.25577 -0.0188,0.51567 -0.0313,0.87005 -0.67525,1.91389 -1.92081,3.11358 -1.50882,1.45326 -3.09826,2.51345 -4.44683,2.96615 -0.90275,0.30304 -1.46009,0.19256 -1.71256,-0.33949 -0.10021,-0.21116 -0.10208,-0.27979 -0.019,-0.69349 0.0507,-0.25252 0.0815,-0.45913 0.0683,-0.45913 -0.0132,0 -0.17897,0.11384 -0.36841,0.25299 -0.78789,0.57871 -1.75491,1.05493 -2.33939,1.15208 -0.36568,0.0608 -0.43813,0.0529 -0.70686,-0.0772 -0.34405,-0.16655 -0.74732,-0.58268 -0.81116,-0.83702 -0.0248,-0.0986 0.005,-0.35009 0.0691,-0.58045 0.25888,-0.93335 0.83361,-2.01131 1.82451,-3.42205 0.41764,-0.5946 0.52638,-0.79683 0.51251,-0.95316 -0.0153,-0.17182 -0.0469,-0.20125 -0.23591,-0.21942 -0.39092,-0.0376 -1.48029,0.686 -2.82441,1.87599 -0.69719,0.61724 -2.62468,2.52661 -3.65881,3.6244 -0.5081,0.53938 -0.62954,0.63706 -0.70953,0.57068 -0.0531,-0.044 -0.0965,-0.16205 -0.0965,-0.26223 0,-0.39622 1.64037,-3.56529 3.9106,-7.55497 0.42884,-0.75363 0.82974,-1.44661 0.89091,-1.53996 0.0612,-0.0933 0.0997,-0.17776 0.0857,-0.18758 -0.014,-0.01 -0.20409,-0.0526 -0.42237,-0.0951 -0.33462,-0.0651 -0.43551,-0.12009 -0.64314,-0.35037 -0.25513,-0.28296 -0.36023,-0.60394 -0.28973,-0.88485 0.0538,-0.21422 0.54356,-0.66994 1.0532,-0.97994 0.46393,-0.28219 1.18694,-0.57584 1.85643,-0.75397 0.45499,-0.12107 0.45572,-0.12163 0.78932,-0.6176 2.45469,-3.64936 5.26933,-6.70728 7.93219,-8.6178 1.74659,-1.25312 3.88202,-2.24147 5.68156,-2.62961 0.88466,-0.19082 2.34719,-0.2388 3.21498,-0.10548 1.75609,0.26979 3.27434,1.10156 4.23361,2.31939 0.57454,0.7294 0.87724,1.46932 0.97981,2.39508 l 0.045,0.40644 0.39499,-0.0358 c 0.38211,-0.0346 0.39427,-0.0309 0.37259,0.11494 -0.0174,0.11736 -0.10954,0.18179 -0.41571,0.29084 l -0.39331,0.14008 -0.0808,0.43949 c -0.33935,1.84605 -1.95465,3.57773 -4.49041,4.81395 l -0.8599,0.4192 -0.44648,0.59754 c -0.37185,0.49764 -0.52815,0.83269 -0.42995,0.92162 0.009,0.008 1.48747,0.0306 3.28527,0.0496 2.24628,0.0238 3.27615,0.0569 3.29244,0.10584 0.0131,0.0392 -0.0455,0.14589 -0.13011,0.23717 -0.1433,0.15463 -0.21006,0.16885 -0.97733,0.20826 -4.65727,0.2392 -5.8597,0.32438 -6.08212,0.43086 -0.18431,0.0882 -0.41073,0.38056 -1.11052,1.43375 -2.64058,3.97412 -4.53882,7.75337 -5.88061,11.70782 -0.71694,2.11294 -1.01304,3.68361 -1.01165,5.36629 10e-4,1.71512 0.28666,2.70578 0.95699,3.32366 0.44786,0.41282 0.81512,0.55593 1.51712,0.59117 1.55416,0.078 3.05436,-0.51008 5.26093,-2.06232 0.48304,-0.3398 1.97578,-1.80122 2.83577,-2.77627 1.34087,-1.52027 2.15777,-2.93979 2.43988,-4.23981 0.091,-0.4196 0.0952,-0.56385 0.0269,-0.94563 -0.10003,-0.55978 -0.30197,-0.92488 -0.60307,-1.09033 -0.30956,-0.17009 -1.0086,-0.13336 -1.35533,0.0712 -0.30334,0.17897 -0.5629,0.18792 -0.5629,0.0194 0,-0.15741 0.14089,-0.27805 0.62116,-0.5319 0.4497,-0.23769 0.90483,-0.27273 1.27301,-0.098 0.5852,0.27769 1.43015,1.61378 1.4216,2.24791 -0.0165,1.22799 -1.14661,3.23618 -2.84216,5.05071 -2.05092,2.19484 -4.61048,3.99261 -6.45981,4.53721 -0.7234,0.21304 -2.02436,0.28133 -2.59475,0.13621 z m -5.14803,-12.20465 c 1.46338,-0.51704 3.96856,-2.6809 4.92341,-4.25261 0.29267,-0.48175 0.53734,-1.13284 0.53734,-1.42993 0,-0.43407 -0.54987,-0.64203 -1.57042,-0.59394 -0.98254,0.0463 -1.30064,0.19381 -2.02275,0.93803 -1.12346,1.15785 -2.02114,2.43925 -2.72617,3.89146 -0.49921,1.02827 -0.57118,1.31001 -0.38682,1.51447 0.10632,0.11792 0.17816,0.13334 0.48845,0.10484 0.20009,-0.0184 0.54072,-0.0959 0.75696,-0.17232 z m -0.4593,-9.82531 c 4.16978,-0.46629 8.20261,-1.63773 11.73205,-3.40788 l 1.03409,-0.51863 0.46845,-0.58584 c 1.12905,-1.412 3.42635,-4.03745 3.65179,-4.17342 0.13497,-0.0814 0.44381,-0.2265 0.68632,-0.32246 0.49907,-0.19748 0.51591,-0.22673 0.51728,-0.89881 0.003,-1.55509 -0.91286,-2.78885 -2.75852,-3.71532 -1.73198,-0.8694 -3.91529,-1.00381 -5.87261,-0.36152 -1.33184,0.43704 -3.49744,1.64794 -4.92786,2.75543 -3.02908,2.34522 -5.92109,5.75031 -8.66154,10.19823 -0.64873,1.05291 -0.66706,1.09308 -0.51991,1.13895 0.25879,0.0807 3.67002,0.001 4.65046,-0.10873 z m -4.75149,-1.18194 c 0.41232,-0.64734 0.74967,-1.18896 0.74967,-1.2036 0,-0.0479 -0.68932,0.20925 -1.05982,0.39537 -0.50092,0.25163 -1.11572,0.69728 -1.40749,1.02023 -0.52944,0.58603 -0.23499,1.01136 0.67584,0.97624 l 0.29214,-0.0113 z m 20.00988,-4.31552 c 0.68322,-0.5112 1.51314,-1.31223 1.88212,-1.81662 0.38442,-0.52548 0.64534,-0.99218 0.55472,-0.99218 -0.1122,0 -2.00651,1.91001 -2.60768,2.62929 -0.28126,0.33652 -0.48703,0.61121 -0.45728,0.61042 0.0298,-7.5e-4 0.31241,-0.19469 0.62812,-0.43091 z m 21.00815,27.5198 c -0.96663,-0.24519 -1.97761,-1.05154 -2.40656,-1.91945 -0.67468,-1.36512 -0.53899,-3.833 0.37276,-6.77947 1.14835,-3.71115 3.61566,-8.88693 5.82464,-12.21863 0.68534,-1.03365 0.77349,-1.30716 0.52342,-1.62405 -0.0797,-0.10096 -0.25332,-0.22888 -0.38588,-0.28427 -0.4532,-0.18936 -0.66479,-0.50421 -0.45554,-0.67787 0.13579,-0.1127 0.88376,-0.20924 1.62538,-0.20978 0.57513,-5e-4 0.67908,-0.0161 0.64779,-0.0976 -0.0734,-0.19127 1.07703,-1.78216 2.60836,-3.60703 2.41189,-2.87423 2.70603,-3.19159 3.16945,-3.41972 0.62423,-0.30728 1.7228,-0.68132 2.0011,-0.68132 0.44165,0 0.3881,0.24796 -0.0841,0.38943 -1.12044,0.33569 -2.89006,2.00587 -5.05396,4.76995 -1.50064,1.91686 -1.87454,2.47399 -1.74129,2.59466 0.009,0.008 1.48746,0.0306 3.28527,0.0496 2.36066,0.025 3.2757,0.0556 3.29384,0.11004 0.0138,0.0415 -0.0433,0.15047 -0.12681,0.24221 -0.14956,0.16423 -0.17547,0.16799 -1.67327,0.24283 -3.32997,0.16637 -5.29296,0.30746 -5.44682,0.3915 -0.17779,0.0971 -1.58197,2.2038 -2.60599,3.90977 -2.47322,4.1203 -4.52924,9.06482 -5.15709,12.40234 -0.19714,1.04799 -0.21613,3.23901 -0.0343,3.95631 0.17263,0.68088 0.42905,1.1639 0.82228,1.54887 0.50225,0.49171 1.01788,0.64544 1.99574,0.59502 1.76549,-0.091 3.788,-1.11203 5.78563,-2.9207 l 0.50643,-0.45853 -0.001,-1.4597 c -7.5e-4,-0.80284 -0.025,-1.49756 -0.0544,-1.54383 -0.0294,-0.0463 -0.18284,-0.10623 -0.34105,-0.13323 -0.41939,-0.0716 -0.40388,-0.18811 0.0372,-0.27968 0.20667,-0.0429 0.54233,-0.13532 0.74592,-0.20537 0.20359,-0.07 0.40823,-0.11274 0.45476,-0.0949 0.0662,0.0254 0.0846,0.48541 0.0846,2.11814 0,1.97753 0.007,2.09233 0.1286,2.21427 0.0707,0.0707 0.23444,0.14846 0.36381,0.17272 0.13541,0.0254 0.2352,0.0831 0.2352,0.13599 0,0.0744 -0.19281,0.0918 -1.01346,0.0918 h -1.01346 l -0.45829,0.36899 c -1.23112,0.99125 -2.91471,1.93116 -3.96401,2.21302 -0.68947,0.1852 -1.95452,0.23471 -2.49492,0.0976 z m -35.36868,-2.62629 c -0.16797,-0.0875 -0.33888,-0.24091 -0.40095,-0.35981 l -0.10818,-0.20723 -0.25483,0.19001 c -0.44845,0.33436 -0.92032,0.47036 -1.54459,0.44514 -0.54042,-0.0218 -0.55504,-0.0269 -0.77721,-0.26932 -0.20107,-0.21941 -0.22642,-0.28829 -0.22642,-0.61514 0,-0.76727 0.37799,-1.09968 1.98437,-1.74508 l 0.82682,-0.3322 0.0196,-0.51022 c 0.0333,-0.86991 -0.184,-1.11198 -0.99531,-1.10871 -0.51151,0.002 -0.77182,0.14152 -0.86629,0.46413 -0.11326,0.38677 -0.21028,0.52214 -0.38917,0.54304 -0.29948,0.035 -0.44767,-0.0908 -0.44767,-0.3799 0,-0.56396 0.78303,-0.89958 1.99339,-0.85439 0.88256,0.033 1.26994,0.20101 1.4958,0.64891 0.14193,0.28146 0.14883,0.36824 0.14883,1.87296 0,0.89535 0.0278,1.62982 0.0643,1.698 0.098,0.18318 0.24569,0.20961 0.49827,0.0892 0.25666,-0.12239 0.32978,-0.0938 0.26687,0.10443 -0.0566,0.1784 -0.4098,0.38985 -0.73329,0.43903 -0.19943,0.0303 -0.33104,0.004 -0.55429,-0.11282 z m -1.08566,-0.45538 c 0.15617,-0.0756 0.35904,-0.22671 0.45084,-0.33581 0.15884,-0.18878 0.16691,-0.23805 0.16691,-1.0201 0,-0.45197 -0.0143,-0.82175 -0.0319,-0.82175 -0.162,0 -1.21204,0.57556 -1.4497,0.79463 -0.88819,0.8187 -0.21078,1.90324 0.86383,1.38303 z m 19.10551,0.51233 c -0.14552,-0.048 -0.33356,-0.12429 -0.41785,-0.16961 -0.12664,-0.0681 -0.18081,-0.0643 -0.31187,0.0215 -0.0872,0.0572 -0.18941,0.10392 -0.22707,0.10392 -0.0897,0 -0.0926,-1.43251 -0.003,-1.48785 0.036,-0.0223 0.14179,0.13227 0.2351,0.34336 0.2988,0.67595 0.65452,0.94605 1.24589,0.94605 0.32058,0 0.38961,-0.0257 0.5986,-0.22278 0.19948,-0.18814 0.23622,-0.26689 0.23622,-0.50634 0,-0.24321 -0.0365,-0.31822 -0.2562,-0.52726 -0.14091,-0.13405 -0.50031,-0.38452 -0.79867,-0.55662 -0.95134,-0.54873 -1.2618,-0.92082 -1.25878,-1.5087 0.002,-0.4175 0.20434,-0.80471 0.53422,-1.02301 0.29054,-0.19227 0.47051,-0.20783 1.6306,-0.14102 0.13642,0.008 0.30013,-0.01 0.3638,-0.0391 0.10616,-0.049 0.11575,0.002 0.11575,0.62066 0,0.75722 -0.0573,0.81748 -0.31181,0.32777 -0.0838,-0.16122 -0.25582,-0.38987 -0.38231,-0.5081 -0.20238,-0.18919 -0.2741,-0.21498 -0.59776,-0.21498 -0.46115,0 -0.69249,0.18853 -0.69249,0.56433 0,0.32757 0.2001,0.5115 1.10446,1.0152 0.40736,0.22688 0.82904,0.51318 0.93706,0.63621 0.38192,0.43499 0.40742,1.30442 0.0537,1.82936 -0.29755,0.4415 -1.2048,0.69234 -1.79751,0.49698 z m 12.86372,-0.0815 c -0.0355,-0.0933 -0.0649,-0.2347 -0.0654,-0.31419 -7.5e-4,-0.0795 -0.0178,-0.20762 -0.0385,-0.28474 -0.0346,-0.12883 -0.063,-0.11484 -0.35022,0.17238 -0.42032,0.42031 -0.82794,0.55567 -1.55796,0.51735 -0.63135,-0.0331 -0.93148,-0.17865 -1.17444,-0.56938 -0.1456,-0.23415 -0.15359,-0.31674 -0.18524,-1.91256 -0.0367,-1.84949 -0.0226,-1.79412 -0.49624,-1.95809 -0.14544,-0.0504 -0.26443,-0.1332 -0.26443,-0.18411 0,-0.13179 1.544,-0.11614 1.62804,0.0165 0.0312,0.0492 0.0571,0.87818 0.0578,1.84225 10e-4,1.97447 0.0291,2.11431 0.46394,2.33154 0.64304,0.32123 1.42614,-0.058 1.71609,-0.83103 0.0408,-0.10884 0.0698,-0.75818 0.0698,-1.56286 0,-1.52785 0.01,-1.49337 -0.45582,-1.62648 -0.13477,-0.0385 -0.23871,-0.11055 -0.23871,-0.16537 0,-0.0804 0.13421,-0.0955 0.78108,-0.0877 0.4296,0.005 0.79262,0.0209 0.80672,0.035 0.0141,0.0141 0.0347,0.8744 0.0457,1.91178 0.023,2.15736 0.0309,2.19187 0.5167,2.26956 0.15465,0.0247 0.26348,0.0755 0.2498,0.11661 -0.0134,0.04 -0.23139,0.12593 -0.48455,0.19089 -0.25315,0.065 -0.54407,0.15056 -0.64649,0.19022 -0.26561,0.10286 -0.30537,0.0926 -0.37767,-0.0976 z m -55.94096,0.01 c -0.39687,-0.12806 -0.90773,-0.47134 -1.14245,-0.7677 -0.37899,-0.47852 -0.49149,-0.82547 -0.49328,-1.52123 -0.002,-0.57998 0.0156,-0.6647 0.21579,-1.07139 0.24997,-0.50776 0.64014,-0.88562 1.19672,-1.15895 0.33502,-0.16453 0.44126,-0.1826 1.0736,-0.1826 0.67589,0 0.71859,0.009 1.15755,0.23663 0.84999,0.4413 1.4037,1.38785 1.33229,2.2775 -0.0666,0.8299 -0.67202,1.72295 -1.41442,2.08648 -0.26285,0.12871 -0.44351,0.16081 -0.98346,0.17478 -0.42434,0.011 -0.76214,-0.0154 -0.94234,-0.0735 z m 1.38001,-0.24665 c 0.34825,-0.14981 0.62266,-0.47154 0.78163,-0.91642 0.0455,-0.12733 0.0982,-0.55893 0.11718,-0.95911 0.0388,-0.81978 -0.0503,-1.29022 -0.33706,-1.77956 -0.19797,-0.33781 -0.71301,-0.63567 -1.09509,-0.63331 -0.5512,0.003 -1.08568,0.44745 -1.30941,1.08786 -0.14635,0.41891 -0.16272,1.84481 -0.0258,2.25105 0.30969,0.91913 1.05675,1.29874 1.86859,0.94949 z m 10.7881,0.21283 c -0.47985,-0.22473 -0.50545,-0.34219 -0.53083,-2.43563 l -0.0219,-1.80247 h -0.1898 c -0.3353,0 -0.30416,-0.13592 0.11614,-0.50705 0.22037,-0.19458 0.49603,-0.5024 0.61259,-0.68404 0.31962,-0.49809 0.39658,-0.44665 0.39658,0.26505 v 0.59531 h 0.59141 c 0.61607,0 0.79126,0.0751 0.5636,0.24155 -0.0777,0.0568 -0.30959,0.0892 -0.63849,0.0892 h -0.51652 l 5e-4,1.67018 c 2e-4,0.94519 0.03,1.77701 0.0687,1.91628 0.15468,0.55694 0.77431,0.60477 1.19392,0.0922 0.11695,-0.14285 0.3245,-0.10834 0.3245,0.054 0,0.12026 -0.22798,0.34289 -0.4961,0.48445 -0.11153,0.0589 -0.41569,0.11553 -0.69453,0.12934 -0.39483,0.0196 -0.55398,-0.003 -0.7797,-0.10828 z m 21.97442,0.002 c -0.49066,-0.22285 -0.52087,-0.35789 -0.54541,-2.43779 l -0.0213,-1.80248 -0.17716,-0.001 c -0.3793,-0.002 -0.36439,-0.0959 0.0768,-0.48327 0.23398,-0.20543 0.52123,-0.52281 0.63833,-0.70529 0.32062,-0.49965 0.39755,-0.44865 0.39755,0.26353 v 0.59531 h 0.62838 c 0.50777,0 0.62839,0.0186 0.62839,0.0969 0,0.16225 -0.23154,0.23383 -0.75633,0.23383 h -0.50044 v 1.72192 c 0,1.82906 0.0373,2.0898 0.32078,2.24151 0.25987,0.13908 0.52505,0.0838 0.80302,-0.1673 0.39915,-0.3606 0.66669,-0.17889 0.28086,0.19075 -0.38721,0.37098 -1.24481,0.49351 -1.77348,0.2534 z m 14.16966,0.0573 c -0.10396,-0.0312 -0.24946,-0.11046 -0.32333,-0.17622 -0.28885,-0.25716 -0.31449,-0.44739 -0.31449,-2.33334 v -1.78806 l -0.1819,-0.001 c -0.41076,-0.002 -0.39883,-0.10156 0.0631,-0.52484 0.24105,-0.22087 0.52266,-0.53516 0.6258,-0.69843 0.28593,-0.45259 0.3529,-0.396 0.3529,0.29824 v 0.59531 h 0.62838 c 0.57246,0 0.62839,0.0112 0.62839,0.12522 0,0.17138 -0.12293,0.20551 -0.74005,0.20551 h -0.53079 l 0.0236,1.78111 c 0.0223,1.68693 0.0309,1.79097 0.16261,1.96783 0.26954,0.36198 0.64517,0.36934 1.04256,0.0204 0.28139,-0.24706 0.38799,-0.2523 0.36068,-0.0177 -0.0515,0.44211 -1.09069,0.75777 -1.79744,0.54598 z m 12.6352,-0.09 c -0.57645,-0.24288 -0.87844,-0.53275 -1.16618,-1.11938 -0.45751,-0.93275 -0.25597,-2.14778 0.48227,-2.90737 0.71445,-0.73512 1.9035,-0.85431 2.76163,-0.27683 l 0.32582,0.21927 -10e-4,-1.36805 c -7.5e-4,-0.75243 -0.0253,-1.40634 -0.055,-1.45313 -0.0297,-0.0468 -0.20038,-0.1212 -0.37933,-0.16536 -0.57646,-0.14227 -0.41347,-0.22002 0.76606,-0.36544 0.27286,-0.0336 0.51842,-0.0485 0.54571,-0.0329 0.0273,0.0155 0.0509,1.41801 0.0525,3.11664 0.002,1.69863 0.0286,3.22149 0.0599,3.38414 0.0676,0.35056 0.3164,0.59724 0.60233,0.59724 0.11916,0 0.19474,0.0346 0.19474,0.0891 0,0.10024 -1.33395,0.48195 -1.44481,0.41344 -0.0365,-0.0225 -0.0857,-0.13742 -0.10946,-0.25523 -0.0956,-0.47524 -0.0879,-0.46951 -0.33791,-0.25 -0.41712,0.36624 -0.73538,0.48727 -1.34896,0.513 -0.48156,0.0202 -0.61765,0 -0.94834,-0.13909 z m 1.74407,-0.32159 c 0.58942,-0.29776 0.75789,-0.82667 0.71285,-2.23793 -0.0265,-0.82865 -0.0427,-0.9238 -0.20548,-1.20153 -0.22121,-0.37746 -0.60209,-0.5789 -1.0946,-0.5789 -0.45625,0 -0.72854,0.12253 -1.01441,0.45651 -0.34525,0.40335 -0.48369,0.8944 -0.47737,1.69323 0.008,0.99156 0.26771,1.59751 0.80727,1.88247 0.34584,0.18266 0.8946,0.17668 1.27174,-0.0139 z m 11.50739,0.41692 c -0.64186,-0.19899 -1.21464,-0.67293 -1.53175,-1.26742 -0.1367,-0.25627 -0.15497,-0.38018 -0.15497,-1.05119 0,-0.69619 0.0149,-0.78898 0.17617,-1.09443 0.24802,-0.46989 0.67795,-0.87628 1.17982,-1.11521 0.39635,-0.18869 0.48422,-0.20465 1.12448,-0.20416 0.59656,7.5e-4 0.73913,0.0226 1.01071,0.15704 0.46742,0.2314 0.92136,0.67278 1.17722,1.14467 0.21267,0.39225 0.22639,0.45572 0.22639,1.04733 0,0.5778 -0.0179,0.66609 -0.21657,1.06969 -0.27117,0.55082 -0.79543,1.04777 -1.30749,1.23935 -0.38131,0.14267 -1.32869,0.18449 -1.68401,0.0743 z m 1.17239,-0.23573 c 0.41203,-0.12236 0.67471,-0.40153 0.88115,-0.93644 0.21335,-0.55284 0.21859,-1.80371 0.01,-2.33707 -0.20823,-0.53192 -0.47966,-0.82856 -0.87968,-0.96143 -0.80981,-0.26897 -1.54098,0.2126 -1.78943,1.17857 -0.12619,0.49064 -0.108,1.58052 0.0341,2.04357 0.14141,0.46077 0.50678,0.88701 0.86933,1.01414 0.34209,0.11996 0.4669,0.11977 0.87474,-0.001 z m -69.94931,0.0888 c 0.0142,-0.0425 0.14309,-0.11793 0.28648,-0.16758 0.43752,-0.15146 0.44445,-0.17022 0.47868,-1.29663 0.0171,-0.56067 0.009,-1.30654 -0.0169,-1.65749 -0.0572,-0.76252 -0.1417,-0.90509 -0.57056,-0.96232 -0.19784,-0.0264 -0.29171,-0.0708 -0.29171,-0.13811 0,-0.0713 0.20421,-0.14914 0.72761,-0.27719 0.86112,-0.21068 0.88624,-0.19998 0.94071,0.40076 0.0202,0.22306 0.055,0.40443 0.0772,0.40305 0.0222,-0.001 0.1189,-0.11609 0.21482,-0.25493 0.43739,-0.63306 1.63648,-0.81895 1.99086,-0.30863 0.0958,0.138 0.0506,0.47941 -0.079,0.59673 -0.18429,0.16678 -0.40967,0.0879 -0.60241,-0.21074 -0.13683,-0.21205 -0.20158,-0.25284 -0.42782,-0.2695 -0.32441,-0.0239 -0.65377,0.17509 -0.85401,0.51595 -0.12425,0.2115 -0.13766,0.35904 -0.15677,1.72439 -0.0231,1.65125 -0.0411,1.57704 0.421,1.73702 0.13965,0.0483 0.26551,0.1227 0.27968,0.16522 0.0191,0.0572 -0.29629,0.0773 -1.20895,0.0773 -0.91266,0 -1.228,-0.0202 -1.20895,-0.0773 z m 10.56859,-0.008 c 0,-0.047 0.13265,-0.12098 0.29478,-0.16434 0.1717,-0.0459 0.32497,-0.13525 0.36708,-0.21393 0.0483,-0.0902 0.0657,-0.67122 0.0525,-1.74869 -0.0197,-1.60414 -0.0207,-1.6146 -0.18017,-1.78417 -0.11729,-0.12475 -0.22728,-0.17056 -0.40951,-0.17056 -0.26374,0 -0.4002,-0.10991 -0.25096,-0.20214 0.049,-0.0303 0.40256,-0.13045 0.78569,-0.22258 0.81497,-0.19597 0.82346,-0.19198 0.89443,0.41951 l 0.0444,0.38272 0.34189,-0.34125 c 0.39669,-0.39592 0.77448,-0.53493 1.31318,-0.48317 0.26701,0.0257 0.37798,0.0727 0.49657,0.21059 0.19719,0.22925 0.19975,0.52661 0.006,0.66252 -0.21124,0.14796 -0.35904,0.12744 -0.49482,-0.0687 -0.24653,-0.35611 -0.34454,-0.42365 -0.61475,-0.42365 -0.37012,0 -0.75556,0.35105 -0.89278,0.81311 -0.11587,0.39019 -0.14292,2.63619 -0.0352,2.91962 0.0477,0.12539 0.14231,0.1903 0.36381,0.24954 0.16465,0.044 0.29937,0.11854 0.29937,0.16557 0,0.0667 -0.2613,0.0855 -1.19063,0.0855 -0.92932,0 -1.19062,-0.0188 -1.19062,-0.0855 z m 12.89844,-0.0107 c 0,-0.0561 0.0896,-0.11321 0.21497,-0.13698 0.11824,-0.0224 0.27451,-0.0845 0.34727,-0.13805 0.12564,-0.0924 0.13315,-0.18444 0.14954,-1.83086 0.01,-0.95346 -0.008,-1.77142 -0.0379,-1.81769 -0.0303,-0.0463 -0.18458,-0.10623 -0.34279,-0.13323 -0.41939,-0.0716 -0.40388,-0.18811 0.0372,-0.27968 0.20667,-0.0429 0.54233,-0.13532 0.74592,-0.20537 0.20359,-0.07 0.40823,-0.11274 0.45476,-0.0949 0.0662,0.0254 0.0846,0.48541 0.0846,2.11814 0,1.97753 0.007,2.09233 0.1286,2.21427 0.0707,0.0707 0.23444,0.14846 0.3638,0.17272 0.13542,0.0254 0.23521,0.0831 0.23521,0.13599 0,0.075 -0.2188,0.0918 -1.19063,0.0918 -0.99775,0 -1.19062,-0.0156 -1.19062,-0.0962 z m 39.82805,-1.5819 -0.0144,-0.35521 0.57048,-0.68659 c 0.99188,-1.19375 1.69761,-2.35512 2.08532,-3.43164 0.22849,-0.63445 0.22616,-1.61838 -0.005,-2.0835 -0.0928,-0.18678 -0.26208,-0.39543 -0.38904,-0.47956 -0.31584,-0.20927 -0.84826,-0.20238 -1.31971,0.0171 -0.37422,0.17421 -0.57215,0.20569 -0.63669,0.10127 -0.0618,-0.1 0.10559,-0.31692 0.34324,-0.4449 0.11954,-0.0644 0.21734,-0.14408 0.21734,-0.17713 0,-0.033 0.24882,-0.45043 0.55294,-0.92753 0.83966,-1.31728 1.65782,-2.74015 2.10985,-3.66925 0.3653,-0.75087 0.40578,-0.87506 0.39651,-1.21657 -0.006,-0.20918 0.0127,-0.38034 0.0408,-0.38034 0.0281,0 0.41482,-0.20836 0.85932,-0.46302 0.4445,-0.25466 0.83575,-0.46302 0.86944,-0.46302 0.0337,0 0.091,0.0557 0.12745,0.12369 0.0539,0.10081 -0.004,0.22008 -0.3156,0.64492 -1.04219,1.42282 -1.77796,2.60128 -1.68325,2.69599 0.10872,0.10872 0.27199,-0.0115 0.89741,-0.66059 1.08557,-1.12671 2.6078,-2.35835 3.60181,-2.91424 0.39704,-0.22204 0.44761,-0.23386 0.82023,-0.1917 0.21841,0.0247 0.43975,0.0613 0.49186,0.0813 0.1516,0.0582 0.11004,0.26341 -0.0941,0.46453 -0.17205,0.16953 -0.23229,0.18629 -0.67799,0.18866 -0.404,0.002 -0.55152,0.035 -0.8473,0.18853 -1.91913,0.99627 -3.91808,2.967 -5.54976,5.47139 -0.24605,0.37765 -0.4868,0.67028 -0.59342,0.72132 l -0.17942,0.0859 0.21332,0.0472 c 0.42851,0.0948 0.87839,0.51498 1.28694,1.20197 0.3938,0.66218 0.47456,0.98341 0.37923,1.50845 -0.24967,1.37507 -1.25253,3.04962 -2.80267,4.67982 -0.35459,0.3729 -0.66635,0.67799 -0.6928,0.67799 -0.0264,0 -0.0546,-0.15984 -0.0625,-0.3552 z m -39.01916,-4.71622 c -0.11127,-0.0448 -0.27973,-0.37645 -0.27973,-0.55076 0,-0.21014 0.28989,-0.4633 0.53051,-0.4633 0.28634,0 0.43597,0.0957 0.51808,0.3312 0.16092,0.46163 -0.30039,0.87135 -0.76886,0.68286 z m 38.1,0 c -0.11127,-0.0448 -0.27973,-0.37645 -0.27973,-0.55076 0,-0.21014 0.28988,-0.4633 0.53051,-0.4633 0.28634,0 0.43597,0.0957 0.51807,0.3312 0.16093,0.46163 -0.30038,0.87135 -0.76885,0.68286 z m -98.44935,-1.33935 c -0.13858,-0.11257 -0.1551,-0.17772 -0.14679,-0.57878 0.0173,-0.83315 0.3648,-2.04095 1.19586,-4.15609 1.18095,-3.00565 3.42605,-7.60215 5.70236,-11.67473 0.46917,-0.83941 0.52149,-0.96495 0.4192,-1.00586 -0.1582,-0.0633 -4.13514,-0.61715 -5.57392,-0.77631 -2.3436,-0.25925 -3.03708,-0.3014 -4.92787,-0.29949 -1.74568,0.002 -1.97445,0.0152 -2.54329,0.14878 -1.41596,0.33263 -2.18613,0.95976 -2.18613,1.78008 0,0.66163 0.74444,2.08416 1.89117,3.61379 0.30482,0.4066 0.55466,0.77647 0.55522,0.82195 0.002,0.18473 -0.18508,0.0534 -0.7383,-0.51744 -1.0669,-1.10096 -2.03677,-2.54719 -2.18632,-3.26015 -0.19703,-0.93938 0.51565,-1.91054 1.90036,-2.58958 1.10116,-0.53998 2.01172,-0.66818 4.26578,-0.60058 0.81821,0.0246 1.63677,0.0581 1.81901,0.0745 0.18225,0.0164 0.77784,0.061 1.32355,0.0991 0.91143,0.0636 4.55483,0.41414 6.27933,0.60407 0.67352,0.0742 0.72793,0.0715 0.79375,-0.0389 0.0389,-0.0652 0.1674,-0.24755 0.28564,-0.40518 0.11824,-0.15763 0.21497,-0.31815 0.21497,-0.35672 0,-0.0981 -0.1992,-0.0873 -0.52789,0.0287 -0.26755,0.0944 -0.39815,0.0859 -0.39815,-0.0259 0,-0.0806 1.00024,-0.78074 1.32721,-0.92907 0.53391,-0.24222 0.92175,-0.12595 0.92175,0.27631 0,0.10007 -0.1926,0.46261 -0.46673,0.87854 -0.2567,0.38949 -0.45743,0.71745 -0.44607,0.72881 0.0544,0.0544 3.09965,0.35333 3.19483,0.31359 0.0364,-0.0152 0.24965,-0.25617 0.47392,-0.53551 0.6788,-0.84546 1.05173,-1.25084 2.26565,-2.46281 2.33641,-2.33267 4.52584,-3.81514 6.98387,-4.72884 3.11801,-1.15902 6.2046,-0.84256 8.29957,0.85095 1.117,0.90294 1.85381,2.32584 1.85381,3.57998 v 0.28215 l 1.10795,0.0393 c 1.95009,0.0691 3.74541,0.47998 5.84723,1.33813 2.99543,1.22302 6.10108,3.50091 7.55942,5.54459 0.93169,1.30565 1.33449,3.09278 0.96593,4.28561 -0.39452,1.27685 -1.27134,2.0345 -3.01587,2.60596 -0.8856,0.2901 -1.57211,0.41376 -2.72219,0.49037 -1.78197,0.11868 -3.52476,-0.15694 -3.52476,-0.55745 0,-0.0519 0.10141,-0.17167 0.22535,-0.26621 l 0.22535,-0.17188 0.15913,0.15913 c 0.46676,0.46676 1.96448,0.68406 3.45814,0.50174 1.85567,-0.2265 3.40736,-0.98372 3.95455,-1.92979 0.32274,-0.55802 0.41171,-0.94842 0.40278,-1.76748 -0.01,-0.89112 -0.15564,-1.52371 -0.5171,-2.24147 -0.52446,-1.04143 -1.10549,-1.77431 -2.12956,-2.68607 -2.72995,-2.43057 -5.71759,-3.99582 -8.92057,-4.67359 -0.7189,-0.15213 -1.17016,-0.20456 -2.01744,-0.2344 l -1.09141,-0.0384 -0.0853,0.45561 c -0.24381,1.30309 -1.41025,2.83138 -2.93467,3.84505 l -0.46375,0.30837 0.0446,0.30083 c 0.0775,0.52229 0.41645,1.47443 0.6925,1.94527 0.28439,0.48508 0.3186,0.59367 0.17634,0.55976 -0.30984,-0.0739 -1.01688,-1.25936 -1.26529,-2.12152 -0.0603,-0.20919 -0.11943,-0.38034 -0.13147,-0.38034 -0.012,0 -0.27038,0.11626 -0.57409,0.25835 -4.33661,2.02895 -8.38162,3.27513 -12.55766,3.86875 -1.71053,0.24315 -2.94332,0.32799 -4.84068,0.33314 l -1.69875,0.005 -0.19148,0.33073 c -0.10532,0.1819 -0.50555,0.86651 -0.88942,1.52135 -1.09556,1.86894 -3.05311,5.32123 -3.35684,5.92005 -0.0461,0.0909 0.20986,-0.13229 0.56886,-0.49609 1.13742,-1.15264 3.0765,-2.8343 4.09139,-3.54824 0.95253,-0.67009 1.44076,-0.91172 2.36685,-1.17143 0.34357,-0.0963 0.40069,-0.097 0.56137,-0.007 0.0984,0.0552 0.20613,0.17788 0.23943,0.27257 0.0529,0.15035 0.0103,0.24225 -0.3359,0.72555 -0.5054,0.70551 -1.30374,2.03006 -1.70118,2.82247 -0.33681,0.67153 -0.70063,1.68639 -0.70063,1.95438 0,0.93251 1.09049,0.77692 2.93659,-0.419 l 0.6112,-0.39593 0.0793,-0.59536 c 0.30361,-2.28037 2.55754,-5.31387 5.01552,-6.75023 0.59749,-0.34915 0.9857,-0.43702 1.31781,-0.29825 0.13987,0.0584 0.31065,0.15721 0.37952,0.21949 0.20167,0.18237 0.38434,0.60027 0.42204,0.96551 0.0991,0.96049 -0.81,1.76362 -2.52635,2.23178 l -0.46346,0.12641 1.98438,-0.0284 c 1.55836,-0.0223 2.06879,-0.0515 2.37759,-0.13601 0.41457,-0.1134 0.97036,-0.40302 1.29071,-0.67257 0.1266,-0.10653 0.20662,-0.13621 0.23657,-0.0877 0.10831,0.17526 -0.88103,0.91891 -1.45264,1.09188 -0.4553,0.13779 -2.17484,0.22374 -4.51571,0.22573 l -1.93119,0.002 -0.42811,0.64492 c -0.49199,0.74113 -0.83039,1.39348 -1.02829,1.98229 -0.1446,0.43018 -0.17226,0.6193 -0.0887,0.6061 0.15048,-0.0238 0.15578,0.025 0.0186,0.17101 -0.13311,0.14169 -0.14803,0.20756 -0.11336,0.50034 0.0505,0.42637 0.28212,0.84879 0.55141,1.00565 0.61559,0.35856 1.69693,0.14329 3.48057,-0.6929 0.41855,-0.19622 0.60039,-0.25198 0.65235,-0.20001 0.13526,0.13526 -0.99421,0.84988 -1.95625,1.23772 -0.88037,0.35492 -1.27412,0.4185 -1.72038,0.27783 -0.20064,-0.0632 -0.49161,-0.21171 -0.64659,-0.32992 -0.34587,-0.26381 -0.77079,-0.80718 -0.82295,-1.05238 -0.0213,-0.10005 -0.067,-0.1819 -0.1016,-0.1819 -0.0346,0 -0.2318,0.12948 -0.43822,0.28775 -0.98489,0.75511 -2.19992,1.38456 -2.835,1.46867 -0.2797,0.037 -0.39796,0.0188 -0.64071,-0.0987 -0.37678,-0.1824 -0.74918,-0.59112 -0.80378,-0.88218 -0.11263,-0.60037 0.87842,-2.61978 2.04897,-4.17508 0.30787,-0.40906 0.37184,-0.53819 0.35473,-0.71604 -0.019,-0.1972 -0.0428,-0.21883 -0.2614,-0.23708 -0.19131,-0.016 -0.34336,0.0434 -0.74312,0.29009 -1.09932,0.67842 -3.09415,2.44529 -4.73797,4.19654 -1.50662,1.60508 -1.58029,1.67412 -1.6896,1.5834 -0.053,-0.044 -0.0963,-0.16587 -0.0963,-0.27087 0,-0.35553 1.71742,-3.66699 3.81262,-7.35132 0.59519,-1.04663 1.08217,-1.91344 1.08217,-1.92624 0,-0.0128 -0.14524,-0.0425 -0.32276,-0.0661 -0.17751,-0.0236 -0.42263,-0.11012 -0.54469,-0.19238 -0.27329,-0.18417 -0.51907,-0.60322 -0.52052,-0.88749 -0.003,-0.57891 1.36893,-1.48832 2.8386,-1.88167 l 0.5431,-0.14536 0.30952,-0.45557 c 0.17023,-0.25056 0.55727,-0.79863 0.86008,-1.21794 0.30282,-0.41931 0.54094,-0.77154 0.52917,-0.78274 -0.0118,-0.0112 -0.61672,-0.11488 -1.34432,-0.23038 -0.72761,-0.11551 -1.38732,-0.22522 -1.46604,-0.2438 -0.12545,-0.0296 -0.22439,0.10369 -0.80152,1.07989 -2.65132,4.48464 -5.48537,10.07842 -6.5628,12.9535 -0.54708,1.45984 -0.61496,1.84653 -0.43077,2.45371 0.13849,0.45651 0.12495,0.59308 -0.0743,0.74984 -0.21375,0.16813 -0.23525,0.16865 -0.43024,0.0103 z m 16.24515,-7.85084 c 0.45132,-0.11614 1.34714,-0.51864 1.7235,-0.77439 0.9235,-0.62753 1.43522,-1.64214 0.95724,-1.89795 -0.51821,-0.27733 -1.53415,0.35005 -3.1409,1.93963 l -0.92604,0.91614 0.49323,-0.0403 c 0.27128,-0.0222 0.67312,-0.0866 0.89297,-0.14315 z m -3.73438,-3.69972 c 3.74726,-0.32741 7.26998,-1.20623 10.78177,-2.68974 1.39226,-0.58814 4.19887,-2.08626 4.34322,-2.31832 0.0282,-0.0454 0.0432,-0.27597 0.0332,-0.51244 -0.0231,-0.54879 0.1406,-1.39521 0.3304,-1.70843 0.51923,-0.85689 1.47812,-1.51673 2.69645,-1.85551 0.27008,-0.0751 0.51519,-0.17458 0.54469,-0.22107 0.0764,-0.12035 0.0653,-1.15302 -0.0161,-1.50666 -0.37991,-1.64953 -2.46496,-3.19205 -4.7754,-3.53284 -1.813,-0.26742 -3.26466,-0.018 -5.18956,0.89184 -2.15461,1.01836 -4.21573,2.54164 -6.2847,4.64476 l -0.94255,0.9581 0.21264,0.45384 c 0.30299,0.64666 0.32947,1.1551 0.0821,1.57713 -0.10044,0.17139 -0.33405,0.43132 -0.51914,0.57762 l -0.33652,0.26601 -0.56295,-0.0425 c -0.30963,-0.0234 -0.68376,-0.0592 -0.83141,-0.0796 l -0.26845,-0.037 -0.69913,0.98126 c -0.79722,1.11893 -1.49735,2.1822 -2.2052,3.34894 -0.46803,0.77147 -0.48328,0.80924 -0.34329,0.85034 0.28403,0.0834 2.80642,0.0542 3.94989,-0.0457 z m -4.5903,-0.37897 c 0.1129,-0.19028 0.44776,-0.72299 0.74414,-1.18381 0.29638,-0.46082 0.53887,-0.85361 0.53887,-0.87287 0,-0.0549 -0.65968,0.18596 -1.05982,0.38697 -0.50091,0.25163 -1.11571,0.69728 -1.40748,1.02023 -0.26708,0.29562 -0.3306,0.64596 -0.14505,0.79995 0.13051,0.10832 0.4563,0.18323 0.82641,0.19003 0.29053,0.005 0.30257,-0.003 0.50293,-0.3405 z m 21.06897,-5.59741 c 0.66447,-0.55462 1.25632,-1.20252 1.6295,-1.78383 0.26759,-0.41682 0.51563,-0.98666 0.45561,-1.04669 -0.0759,-0.0759 -0.79401,0.11902 -1.2682,0.34428 -0.75239,0.35743 -1.1913,0.88758 -1.44628,1.74696 -0.11118,0.37475 -0.14726,1.2613 -0.0513,1.2613 0.0304,0 0.33671,-0.23491 0.68069,-0.52202 z m -15.13963,-0.39075 c 0.13546,-0.13545 0.13923,-0.16778 0.0681,-0.58323 -0.0414,-0.24191 -0.10107,-0.46556 -0.13251,-0.49701 -0.0604,-0.0604 -1.08474,1.13188 -1.03775,1.20789 0.0149,0.0241 0.23672,0.0375 0.49294,0.0298 0.37805,-0.0114 0.49288,-0.0411 0.60925,-0.15745 z m 16.78964,17.17373 c -0.64969,-0.18659 -1.52361,-1.14249 -1.27332,-1.39277 0.0507,-0.0507 0.17913,0.0277 0.44756,0.27298 0.20706,0.18925 0.52764,0.42069 0.7124,0.51431 0.30322,0.15365 0.38893,0.16692 0.88037,0.13626 0.68229,-0.0426 1.01606,-0.19668 1.59583,-0.73683 1.93289,-1.80078 5.52074,-7.99691 7.18543,-12.40907 0.1853,-0.49114 0.36643,-0.90171 0.40251,-0.91239 0.0361,-0.0107 0.0906,0.13358 0.12126,0.32058 0.0609,0.37203 -0.0286,0.68492 -0.64961,2.26992 -1.4841,3.78806 -3.40168,7.40948 -4.98868,9.42134 -0.64963,0.82354 -1.66622,1.77138 -2.26768,2.11432 -0.71785,0.4093 -1.58132,0.56928 -2.16607,0.40135 z m 33.16221,-0.64377 c -0.60557,-0.27485 -0.69843,-0.72277 -0.35954,-1.73429 0.33193,-0.99075 1.1088,-2.28585 2.24887,-3.74902 0.29161,-0.37424 0.53019,-0.69138 0.53019,-0.70474 0,-0.0134 -0.13488,-0.10887 -0.29974,-0.21226 -0.33497,-0.21006 -0.43821,-0.43748 -0.27342,-0.60227 0.0781,-0.0781 0.29333,-0.11524 0.8302,-0.14323 0.61583,-0.0321 0.74791,-0.059 0.87878,-0.17887 0.48412,-0.44346 0.97535,-0.48561 1.63622,-0.14041 l 0.45304,0.23665 1.49056,0.048 c 0.81981,0.0264 1.53036,0.0737 1.579,0.10511 0.14712,0.0949 -0.0674,0.18708 -0.44073,0.18933 -0.1819,10e-4 -0.40514,0.0396 -0.49609,0.0856 -0.1489,0.0753 -0.16635,0.12627 -0.1752,0.51166 -0.0268,1.16625 -1.01754,2.53751 -3.01164,4.16827 -1.25481,1.02616 -2.38832,1.70314 -3.3616,2.00768 -0.75667,0.23677 -0.92219,0.25196 -1.2289,0.11275 z m 1.51593,-0.46955 c 1.02945,-0.42871 2.33414,-1.4126 3.59658,-2.71222 1.08614,-1.11813 1.80313,-2.44767 1.64967,-3.05907 -0.0208,-0.0827 -0.13569,-0.20957 -0.25542,-0.28196 -0.18524,-0.112 -0.33607,-0.13163 -1.01145,-0.13163 -1.13439,0 -1.43638,0.10442 -2.07256,0.71663 -1.0811,1.04039 -2.13801,2.49498 -2.84361,3.91358 -0.59835,1.20298 -0.66624,1.46626 -0.44981,1.74421 0.11611,0.14912 0.79685,0.0561 1.3866,-0.18954 z m 29.19685,0.4979 c -0.49358,-0.1709 -0.68195,-0.47401 -0.61415,-0.9882 0.14457,-1.09633 0.97041,-2.62064 2.48128,-4.57987 l 0.49397,-0.64057 -0.19044,-0.13785 c -0.49205,-0.35618 -0.53314,-0.40906 -0.45357,-0.58369 0.0897,-0.19699 0.30086,-0.24869 1.01547,-0.24869 0.49801,0 0.5301,-0.01 0.91791,-0.2773 0.53738,-0.37083 0.85366,-0.3791 1.47325,-0.0385 l 0.4344,0.23878 1.53099,0.0481 c 0.85904,0.027 1.54835,0.0762 1.57055,0.11207 0.0635,0.1028 -0.1198,0.17917 -0.44042,0.18347 -0.16371,0.002 -0.3852,0.0414 -0.49221,0.087 -0.18736,0.0799 -0.19487,0.10005 -0.20282,0.54272 -0.0198,1.10245 -0.95244,2.42999 -2.77747,3.95347 -1.36067,1.13585 -2.54783,1.8615 -3.57203,2.18342 -0.71712,0.2254 -0.88457,0.24616 -1.17471,0.1457 z m 1.01388,-0.33931 c 1.37572,-0.40492 3.60827,-2.16913 4.86849,-3.84718 0.56827,-0.75668 0.97215,-1.78205 0.82722,-2.10014 -0.14019,-0.30768 -0.43084,-0.39615 -1.30154,-0.39615 -1.33804,0 -1.6453,0.16573 -2.80246,1.51148 -0.9799,1.13961 -1.73613,2.31036 -2.33213,3.61039 -0.33553,0.73191 -0.39228,1.04963 -0.2185,1.22341 0.13321,0.1332 0.50259,0.13251 0.95892,-0.002 z m -13.13448,0.10098 c -1.16495,-0.15963 -2.35696,-0.65244 -2.80257,-1.15868 -0.63699,-0.72366 -0.60786,-1.77755 0.0682,-2.46883 1.06476,-1.0887 4.80643,-2.25015 8.33873,-2.58841 0.58426,-0.0559 0.82864,-0.10325 0.79862,-0.15458 -0.0238,-0.0407 -0.25685,-0.35672 -0.51792,-0.70233 -0.99898,-1.32244 -3.16834,-4.27244 -3.44273,-4.68157 -0.82428,-1.22905 -1.03731,-2.52632 -0.56965,-3.46891 0.38669,-0.77937 1.23519,-1.45461 2.67728,-2.13058 1.92148,-0.90069 3.80139,-1.29703 6.16565,-1.29992 2.17287,-0.003 3.04651,0.23726 3.86954,1.06259 0.61407,0.61579 0.76067,1.01758 0.76067,2.08479 0,0.72377 -0.0157,0.82729 -0.17824,1.17409 -0.19672,0.41979 -0.36152,0.51601 -0.29247,0.17077 0.31478,-1.57391 -0.23534,-2.92839 -1.43732,-3.53889 -1.30251,-0.66155 -4.36684,-0.71782 -6.65785,-0.12225 -1.08814,0.28288 -1.99057,0.68815 -2.94207,1.32125 -1.41526,0.94169 -1.87859,1.98104 -1.46696,3.29075 0.26157,0.83226 0.66036,1.46098 2.00518,3.16132 0.67617,0.85493 1.59916,2.03811 2.05108,2.62929 l 0.82167,1.07487 h 1.18769 c 0.73231,0 1.18768,0.0249 1.18768,0.0649 0,0.0941 -0.19271,0.12064 -1.18598,0.16329 -0.48857,0.021 -0.89603,0.0459 -0.90547,0.0553 -0.009,0.009 0.0693,0.19508 0.17489,0.41255 0.69647,1.43385 0.44594,3.07386 -0.61643,4.03525 -0.69022,0.62462 -1.95319,1.16644 -3.4688,1.48813 -0.74915,0.15901 -2.84815,0.23192 -3.62243,0.12583 z m 2.28203,-0.42698 c 1.00004,-0.0789 2.48068,-0.53913 3.42236,-1.06379 0.61942,-0.34512 1.16661,-0.88499 1.42165,-1.40264 0.18713,-0.3798 0.21891,-0.51886 0.23676,-1.03576 0.0234,-0.67868 -0.1024,-1.14588 -0.45774,-1.69965 -0.24065,-0.37501 -0.18685,-0.36771 -1.39847,-0.18966 -2.74165,0.40289 -4.80798,0.96046 -6.29476,1.69854 -1.60035,0.79445 -2.25494,1.52465 -2.03246,2.26722 0.0856,0.28571 0.58499,0.81937 0.92943,0.99322 0.84489,0.42642 2.31678,0.57897 4.17323,0.43252 z m 24.13292,0.27716 c -0.72992,-0.27202 -1.29872,-0.8396 -1.4856,-1.48242 -0.0956,-0.32887 -0.0956,-0.41463 0,-0.98208 0.13835,-0.81883 0.30623,-1.30318 0.74297,-2.14341 0.53704,-1.0332 1.14886,-1.85044 2.10864,-2.81665 0.95035,-0.95672 1.53573,-1.41972 2.28203,-1.80495 0.61125,-0.31552 0.79646,-0.36152 1.11274,-0.27635 0.70533,0.18993 1.09321,1.22347 0.73605,1.96126 -0.28791,0.59474 -1.22732,1.19234 -2.32744,1.4806 l -0.48047,0.12589 1.52136,0.002 c 2.07196,0.003 2.71108,-0.0647 3.30902,-0.34867 0.25749,-0.12228 0.57924,-0.31985 0.71499,-0.43905 0.13576,-0.11919 0.26344,-0.20012 0.28373,-0.17983 0.15037,0.15037 -0.47771,0.71527 -1.12131,1.0085 -0.56169,0.25592 -1.07091,0.29972 -3.9698,0.34149 l -2.76773,0.0399 -0.32407,0.43644 c -0.41283,0.55597 -1.15584,2.04929 -1.24724,2.50675 -0.0876,0.43845 -0.0895,1.03213 -0.004,1.33914 0.0898,0.3232 0.43252,0.63398 0.80998,0.73445 0.56017,0.14911 1.72801,-0.14547 3.08603,-0.77843 0.68389,-0.31877 0.73448,-0.33232 0.73448,-0.19684 0,0.0511 -0.23069,0.24058 -0.51263,0.42114 -1.35145,0.86546 -2.60016,1.27543 -3.20184,1.05121 z m 1.93925,-6.02402 c 1.30395,-0.25038 2.58818,-1.00507 3.03452,-1.78327 0.36884,-0.64309 0.21239,-1.08284 -0.3622,-1.01807 -0.55723,0.0628 -1.84592,1.01268 -3.1116,2.2935 l -0.59393,0.60104 h 0.27392 c 0.15065,0 0.49234,-0.0419 0.75929,-0.0932 z"
       id="path683" />
  </g>
</svg>
